<svg width="45" height="45" viewBox="0 0 45 45" fill="none" xmlns="http://www.w3.org/2000/svg">
<path d="M39.375 22.5C39.3806 25.8502 38.3841 29.1255 36.5138 31.905C34.9713 34.2055 32.8858 36.0906 30.4416 37.3935C27.9973 38.6963 25.2698 39.3769 22.5 39.375C19.7302 39.3769 17.0027 38.6963 14.5584 37.3935C12.1142 36.0906 10.0287 34.2055 8.48625 31.905C7.01762 29.7158 6.08232 27.2129 5.75532 24.5971C5.42833 21.9812 5.71874 19.3252 6.60328 16.8418C7.48781 14.3584 8.94187 12.1168 10.8489 10.2967C12.7559 8.47653 15.0628 7.1285 17.5847 6.36063C20.1066 5.59276 22.7733 5.42642 25.3711 5.87494C27.9689 6.32346 30.4254 7.37436 32.5438 8.9434C34.6622 10.5124 36.3836 12.556 37.5699 14.9102C38.7562 17.2644 39.3744 19.8638 39.375 22.5Z" stroke="black"/>
<path d="M25.3127 16.875C25.3127 17.6209 25.0164 18.3363 24.489 18.8637C23.9615 19.3912 23.2461 19.6875 22.5002 19.6875V21.5625C23.1158 21.5625 23.7253 21.4413 24.294 21.2057C24.8628 20.9701 25.3795 20.6248 25.8148 20.1896C26.2501 19.7543 26.5953 19.2375 26.8309 18.6688C27.0665 18.1001 27.1877 17.4906 27.1877 16.875H25.3127ZM22.5002 19.6875C21.7543 19.6875 21.0389 19.3912 20.5115 18.8637C19.984 18.3363 19.6877 17.6209 19.6877 16.875H17.8127C17.8127 17.4906 17.934 18.1001 18.1695 18.6688C18.4051 19.2375 18.7504 19.7543 19.1857 20.1896C20.0647 21.0686 21.257 21.5625 22.5002 21.5625V19.6875ZM19.6877 16.875C19.6877 16.1291 19.984 15.4137 20.5115 14.8863C21.0389 14.3588 21.7543 14.0625 22.5002 14.0625V12.1875C21.257 12.1875 20.0647 12.6814 19.1857 13.5604C18.3066 14.4395 17.8127 15.6318 17.8127 16.875H19.6877ZM22.5002 14.0625C23.2461 14.0625 23.9615 14.3588 24.489 14.8863C25.0164 15.4137 25.3127 16.1291 25.3127 16.875H27.1877C27.1877 15.6318 26.6939 14.4395 25.8148 13.5604C24.9357 12.6814 23.7434 12.1875 22.5002 12.1875V14.0625ZM9.68646 33.48L8.78646 33.2138L8.64209 33.7031L8.97396 34.0912L9.68646 33.48ZM35.314 33.48L36.0265 34.0912L36.3583 33.7031L36.2121 33.2138L35.314 33.48ZM16.8752 29.0625H28.1252V27.1875H16.8752V29.0625ZM16.8752 27.1875C15.0582 27.1878 13.2898 27.7744 11.8329 28.8601C10.3759 29.9459 9.3063 31.4727 8.78646 33.2138L10.5846 33.7481C10.9893 32.3942 11.8201 31.2069 12.9534 30.3628C14.0867 29.5186 15.4621 29.0626 16.8752 29.0625V27.1875ZM22.5002 38.4375C20.2001 38.44 17.9268 37.9433 15.8373 36.9819C13.7477 36.0205 11.8916 34.6172 10.3971 32.8687L8.97396 34.0912C10.6447 36.0445 12.7192 37.6123 15.0543 38.6863C17.3895 39.7603 19.9299 40.3152 22.5002 40.3125V38.4375ZM28.1252 29.0625C29.5386 29.0627 30.9142 29.519 32.0475 30.3635C33.1808 31.208 34.0114 32.3957 34.4158 33.75L36.2121 33.2138C35.6923 31.4727 34.6245 29.9459 33.1676 28.8601C31.7106 27.7744 29.9422 27.1878 28.1252 27.1875V29.0625ZM34.6033 32.8687C33.1088 34.6172 31.2527 36.0205 29.1632 36.9819C27.0736 37.9433 24.8003 38.44 22.5002 38.4375V40.3125C25.0706 40.3152 27.6109 39.7603 29.9461 38.6863C32.2813 37.6123 34.3557 36.0445 36.0265 34.0912L34.6015 32.8706L34.6033 32.8687Z" fill="black"/>
</svg>
