<svg width="100" height="100" viewBox="0 0 100 100" fill="none" xmlns="http://www.w3.org/2000/svg">
<path d="M88.2081 8.58319C85.2214 8.06874 82.1971 7.80394 79.1664 7.79152C68.8263 7.78305 58.7018 10.7481 49.9998 16.3332C41.2754 10.8214 31.1525 7.92915 20.8331 7.99986C17.8025 8.01227 14.7781 8.27708 11.7914 8.79152C10.8131 8.96018 9.9272 9.4726 9.29317 10.2365C8.65914 11.0004 8.31868 11.9656 8.33312 12.9582V62.9582C8.32419 63.5704 8.45031 64.1771 8.70249 64.735C8.95467 65.293 9.32672 65.7885 9.79217 66.1863C10.2576 66.5841 10.805 66.8745 11.3954 67.0367C11.9858 67.1989 12.6047 67.229 13.2081 67.1249C19.179 66.091 25.2965 66.2626 31.2001 67.6293C37.1037 68.9961 42.674 71.5305 47.5831 75.0832L48.0831 75.3749H48.5414C49.0035 75.5674 49.4992 75.6665 49.9998 75.6665C50.5004 75.6665 50.996 75.5674 51.4581 75.3749H51.9165L52.4165 75.0832C57.2913 71.4511 62.8457 68.8346 68.7504 67.3888C74.6551 65.9431 80.79 65.6974 86.7914 66.6665C87.3948 66.7707 88.0137 66.7406 88.6041 66.5784C89.1945 66.4161 89.7419 66.1258 90.2074 65.728C90.6728 65.3301 91.0449 64.8346 91.2971 64.2767C91.5493 63.7187 91.6754 63.1121 91.6664 62.4999V12.4999C91.6231 11.5505 91.2565 10.6445 90.6275 9.9321C89.9985 9.21971 89.1448 8.74376 88.2081 8.58319ZM45.8331 63.9582C38.1243 59.9027 29.5436 57.7861 20.8331 57.7915H16.6664V16.1249C18.0542 16.0449 19.4454 16.0449 20.8331 16.1249C29.7222 16.115 38.4173 18.7236 45.8331 23.6249V63.9582ZM83.3331 57.9582H79.1664C70.456 57.9528 61.8753 60.0694 54.1665 64.1249V23.6249C61.5822 18.7236 70.2773 16.115 79.1664 16.1249C80.5542 16.0449 81.9454 16.0449 83.3331 16.1249V57.9582ZM88.2081 75.2499C85.2214 74.7354 82.1971 74.4706 79.1664 74.4582C68.8263 74.4497 58.7018 77.4147 49.9998 82.9999C41.2978 77.4147 31.1733 74.4497 20.8331 74.4582C17.8025 74.4706 14.7781 74.7354 11.7914 75.2499C11.2491 75.3359 10.729 75.5284 10.2613 75.8161C9.79354 76.1039 9.38729 76.4812 9.06589 76.9266C8.7445 77.3719 8.51431 77.8763 8.38855 78.4109C8.26279 78.9455 8.24395 79.4996 8.33312 80.0415C8.54486 81.1235 9.17683 82.0775 10.0906 82.6945C11.0043 83.3115 12.1254 83.5411 13.2081 83.3332C19.179 82.2994 25.2965 82.4709 31.2001 83.8377C37.1037 85.2045 42.674 87.7388 47.5831 91.2915C48.2888 91.794 49.1335 92.0639 49.9998 92.0639C50.866 92.0639 51.7108 91.794 52.4165 91.2915C57.3255 87.7388 62.8959 85.2045 68.7995 83.8377C74.7031 82.4709 80.8205 82.2994 86.7914 83.3332C87.8742 83.5411 88.9952 83.3115 89.909 82.6945C90.8227 82.0775 91.4547 81.1235 91.6664 80.0415C91.7556 79.4996 91.7368 78.9455 91.611 78.4109C91.4853 77.8763 91.2551 77.3719 90.9337 76.9266C90.6123 76.4812 90.206 76.1039 89.7383 75.8161C89.2705 75.5284 88.7505 75.3359 88.2081 75.2499Z" fill="black" fill-opacity="0.75"/>
</svg>
