<svg width="45" height="45" viewBox="0 0 45 45" fill="none" xmlns="http://www.w3.org/2000/svg">
<path d="M39.375 3.75L35.625 7.5M35.625 7.5L41.25 13.125L34.6875 19.6875L29.0625 14.0625M35.625 7.5L29.0625 14.0625M21.3563 21.7687C22.3244 22.724 23.094 23.8613 23.6208 25.1152C24.1476 26.3691 24.4211 27.7149 24.4257 29.0749C24.4303 30.435 24.1657 31.7825 23.6474 33.0399C23.129 34.2974 22.367 35.4398 21.4053 36.4015C20.4436 37.3632 19.3011 38.1252 18.0437 38.6436C16.7863 39.162 15.4388 39.4265 14.0787 39.4219C12.7186 39.4174 11.3729 39.1438 10.119 38.617C8.8651 38.0903 7.72778 37.3206 6.77253 36.3525C4.89402 34.4075 3.85458 31.8026 3.87808 29.0987C3.90157 26.3948 4.98613 23.8083 6.89815 21.8962C8.81017 19.9842 11.3967 18.8997 14.1006 18.8762C16.8045 18.8527 19.4094 19.8921 21.3544 21.7706L21.3563 21.7687ZM21.3563 21.7687L29.0625 14.0625" stroke="black" stroke-width="2" stroke-linecap="round" stroke-linejoin="round"/>
</svg>
