<svg width="42" height="30" viewBox="0 0 42 30" fill="none" xmlns="http://www.w3.org/2000/svg">
<path d="M33.75 18.75V3.75C33.75 1.6875 32.0625 0 30 0H3.75C1.6875 0 0 1.6875 0 3.75V18.75C0 20.8125 1.6875 22.5 3.75 22.5H30C32.0625 22.5 33.75 20.8125 33.75 18.75ZM30 18.75H3.75V3.75H30V18.75ZM16.875 5.625C13.7625 5.625 11.25 8.1375 11.25 11.25C11.25 14.3625 13.7625 16.875 16.875 16.875C19.9875 16.875 22.5 14.3625 22.5 11.25C22.5 8.1375 19.9875 5.625 16.875 5.625ZM41.25 5.625V26.25C41.25 28.3125 39.5625 30 37.5 30H5.625V26.25H37.5V5.625H41.25Z" fill="black" fill-opacity="0.75"/>
</svg>
