<svg width="100" height="100" viewBox="0 0 100 100" fill="none" xmlns="http://www.w3.org/2000/svg">
<path d="M33.3335 91.6666H66.6668C78.4502 91.6666 84.346 91.6666 88.0043 88.0083C91.6668 84.3416 91.6668 78.4541 91.6668 66.6666V62.5C91.6668 50.7166 91.6668 44.825 88.0043 41.1625C84.8043 37.9625 79.896 37.5583 70.8335 37.5083M29.1668 37.5083C20.1043 37.5583 15.196 37.9625 11.996 41.1625C8.3335 44.825 8.3335 50.7166 8.3335 62.5V66.6666C8.3335 78.4541 8.3335 84.3458 11.996 88.0083C13.246 89.2583 14.7543 90.0791 16.6668 90.6208" stroke="black" stroke-width="1.5" stroke-linecap="round"/>
<path d="M50 8.3335V62.5002M50 62.5002L37.5 47.9168M50 62.5002L62.5 47.9168" stroke="black" stroke-width="1.5" stroke-linecap="round" stroke-linejoin="round"/>
</svg>
